<svg width="1070" height="568" viewBox="0 0 1070 568" fill="none" xmlns="http://www.w3.org/2000/svg">
<g clip-path="url(#clip0_5_22)">
<path fill-rule="evenodd" clip-rule="evenodd" d="M124.571 464.991C145.243 463.668 164.417 459.569 179.111 450.976C202.27 437.36 211.984 417.263 199.033 399.547C187.581 384.077 158.688 371.518 127.308 369.01H15.7317V464.991H124.571ZM115.856 445.289C141.508 443.966 162.43 436.299 166.41 421.624C172.638 405.102 147.98 388.438 116.35 388.311H53.5899V445.289H115.856ZM374.613 465.124H338.254V398.091L229.17 464.991H181.853L334.024 369.143H374.613V465.124ZM558.664 436.169V369.143H595.029V464.991L553.18 465.124L442.608 396.642V464.991H407.742V369.143L448.337 369.01L558.664 436.169ZM662.019 464.991H627.153V369.143H662.019V464.991ZM859.515 388.311H731.496V408.667H858.521V427.441H731.496V447.143H858.521V465.124H694.649V369.275H859.521V388.311H859.515ZM927.993 448.593H1054.27V465.253H891.139V369.272H927.993V448.593ZM536.493 128.13C559.408 117.289 584.316 108.301 613.448 104.335L596.012 102.747H299.902V254.385L536.493 128.13Z" fill="#0A22FE"/>
<path fill-rule="evenodd" clip-rule="evenodd" d="M661.52 112.135C653.548 109.492 630.634 106.716 620.431 105.525C591.787 111.21 565.636 120.465 542.227 132.892L299.902 268.4V271.176L563.388 135.667C590.788 122.313 624.655 114.118 661.52 112.135Z" fill="#0A22FE"/>
<path fill-rule="evenodd" clip-rule="evenodd" d="M587.796 141.879L299.902 288.491L300.895 285.32L579.825 133.154C605.976 122.18 637.112 114.646 671.972 114.911C683.929 118.217 695.143 122.316 705.845 126.677C664.501 122.313 620.181 127.337 587.796 141.879ZM754.661 157.479C728.01 143.07 693.394 136.328 655.047 139.631C638.721 141.324 623.317 144.938 609.967 150.207L299.902 305.284V302.505L596.012 143.862C627.397 128.79 672.966 124.429 713.072 130.113C729.759 137.78 744.697 147.036 754.661 157.479ZM749.426 269.723C713.822 298.542 650.806 319.697 592.281 319.829H300.895L614.441 154.441C643.085 141.087 690.152 138.311 723.531 147.699C738.718 151.93 752.912 158.54 762.127 166.207C793.258 196.744 785.042 241.166 749.426 269.723Z" fill="#0A22FE"/>
</g>
<defs>
<clipPath id="clip0_5_22">
<rect width="1070" height="568" fill="white"/>
</clipPath>
</defs>
</svg>
